<svg viewBox="0 0 12.7 12.7" class="" fill="#293e9b">
	<g inkscape:label="Слой 1" inkscape:groupmode="layer" id="layer1" transform="translate(-41.143776,-127.62699)">
		<path style="display:inline;mix-blend-mode:normal" d="m 41.141691,139.5646 0.0021,-5.62994 -0.0021,-5.61326 c -0.0018,-0.46323 0.231733,-0.69662 0.643654,-0.69858 l 5.662206,0.004 5.708071,-0.002 c 0.418105,0.004 0.687954,0.25144 0.690239,0.72026 l -0.0021,5.58949 v 5.74168 c 2.61e-4,0.38543 -0.273149,0.65401 -0.696289,0.6569 l -5.659275,-0.0132 -5.60924,0.006 c -0.507593,0.002 -0.733192,-0.21185 -0.737281,-0.7609 z m 8.045415,-2.70052 v -2.0443 -2.04431 c 0,-0.48269 0.0014,-0.48162 -0.342949,-0.48162 -1.250002,-0.0248 -1.289979,-0.0288 -1.942173,-0.0288 0.0048,0.27703 -9.82e-4,0.58815 -8.78e-4,0.8652 h 0.677333 0.677333 v 1.69334 1.69333 H 46.562443 44.86911 v -1.60569 -1.78258 c 0.238509,0.005 0.476813,0.002 0.715138,-0.005 l 0.0045,-0.83873 -0.625149,-6.6e-4 -0.625149,-6.6e-4 c -0.400921,0 -0.400495,0.001 -0.400495,0.46566 l -1.03e-4,1.98366 -1.04e-4,2.13661 c 0,0.55791 -4.53e-4,0.56724 0.550339,0.56724 l 2.032,0.005 2.032,0.005 c 0.63526,-0.0111 0.635019,-0.0122 0.635019,-0.58269 z m -1.100663,-1.65589 v -0.46211 l -1.312333,-0.002 -0.02296,-1.71971 -0.02296,-1.67217 h 1.654579 1.65458 l -0.02296,1.67217 -0.02296,1.72178 c -0.191775,0 -0.409949,0.003 -0.605475,0.003 l 0.01281,0.87827 h 0.621374 0.621375 c 0.321443,0 0.323585,-1e-4 0.323585,-0.39976 v -2.18257 -2.18258 c 0,-0.39776 -9.66e-4,-0.39976 -0.323468,-0.39976 -0.322502,0 -2.199612,-0.0251 -2.199612,-0.0251 0,0 -1.713023,-0.0251 -2.199613,-0.0251 -0.48659,0 -0.484307,-8.5e-4 -0.484307,0.41636 0,0.41721 -0.02517,2.1552 -0.02517,2.1552 0,0 -0.02517,1.62268 -0.02517,2.1552 0,0.53252 -6.39e-4,0.53051 0.446399,0.53051 h 0.966141 0.96614 z" id="path1" sodipodi:nodetypes="cccccccccccccccczcccccccccccccccccccccccccccccccccczzczzczzczzccc"></path>
	</g>
</svg>